<svg xmlns="http://www.w3.org/2000/svg" xml:space="preserve" viewBox="0 0 401.7 239.6">
  <path fill="currentColor" d="M396.2 132.9 298.3 35c-2.7-2.6-6-4.4-9.6-5.1V18.3C288.4 8 280.2 0 269.9 0H131.5c-10.4 0-18.8 8.4-18.8 18.8v11.9c-3.5.8-6.7 2.5-9.3 5.1L5.5 133.7c-3.4 3.4-5.3 7.8-5.5 12.6v1.3c.2 4.8 2.1 9.2 5.5 12.6L53.2 208c3.6 3.6 8.3 5.5 13.3 5.5s9.8-2 13.3-5.5l21.2-21.2 96.9 50.6 2 2 .9-.5 1.4.8 3.1-3.1 95.7-50 20.7 20.7c3.5 3.6 8.3 5.5 13.3 5.5s9.8-2 13.3-5.5l47.7-47.7c3.6-3.6 5.5-8.3 5.5-13.4.2-5-1.7-9.7-5.3-13.3zM126.7 86.3v-34l38.8 38.9h-34c-2.7-.1-4.8-2.2-4.8-4.9zm39.9 35 22 70.1-31.6-60.5 9.6-9.6zm33.8 92.8h1.2l-.6 1.2-.6-1.2zm44.8-83.4-31.7 60.6 22-70.3 9.7 9.7zM126.7 18.8c0-2.7 2.2-4.8 4.8-4.8h138.4c2.6 0 4.7 2 4.8 4.6v14c-1.1.7-2.1 1.5-3 2.5L224 82.8c-7.3 7.3-7.3 19.3 0 26.6l.5.5-23.4 74.5-23.3-74.2s0-.1.1-.1c.4-.4.8-.9 1.2-1.3l.1-.1c.4-.5.7-.9 1-1.4v-.1l.9-1.5v-.1c.3-.5.5-1 .7-1.6.2-.6.4-1.1.6-1.7.2-.6.3-1.1.4-1.7l.3-1.8v-.6c0-.4.1-.9.1-1.3 0-5-2-9.8-5.5-13.3L130 35.8l-.1-.1c-.4-.4-.8-.8-1.3-1.1-.1-.1-.2-.2-.4-.3-.5-.4-.9-.7-1.4-1-.1 0-.1-.1-.2-.1V18.8zm148 33v34.7c-.1 2.6-2.2 4.6-4.8 4.6h-34.5l39.3-39.3zM98.5 169.6 70 198.1c-.9.9-2.1 1.4-3.4 1.4-1.3 0-2.5-.5-3.4-1.4l-47.7-47.7c-1.1-1.1-1.4-2.3-1.4-3.2v-.5c.1-1.2.6-2.3 1.4-3.2l97.2-97.3v39.9c0 10.4 8.4 18.8 18.8 18.8h30l.3 1.1-22.1 22 45.2 86.6-86.4-45zm287.8-19.9-47.7 47.7c-.9.9-2.1 1.4-3.4 1.4-1.3 0-2.5-.5-3.4-1.4l-28-28-86.6 45.2 45.2-86.6-22.1-22.1.3-.8h29.3c10.2 0 18.5-8 18.8-18.3V45.2l97.6 97.6c.9.9 1.4 2.1 1.4 3.4 0 1.3-.5 2.6-1.4 3.5z"/>
</svg>
